<svg width="56" height="56" viewBox="0 0 56 56" fill="none" xmlns="http://www.w3.org/2000/svg">
<g id="Frame">
<path id="Vector" d="M39.4968 22.879C39.4341 17.8055 38.5292 12.2413 33.9463 9.25124C29.8083 6.55168 24.2013 6.68314 20.0939 9.32462C19.541 9.67814 19.0185 10.077 18.5316 10.517C16.7383 12.1691 15.3446 14.2079 14.4563 16.4786C13.4164 19.1119 12.9475 21.9359 13.0805 24.7638C13.3358 30.4412 12.7197 36.1353 12.7197 41.8356C12.7197 42.0328 12.7197 42.259 12.8726 42.3844C13.0091 42.47 13.1724 42.5022 13.3312 42.4746C15.7189 42.3416 17.833 41.9289 20.1382 41.5452C23.012 41.0682 26.1106 41.2043 29.0196 41.0224C30.7515 40.9215 32.5721 40.6418 34.304 40.7167C34.8559 40.7411 39.6879 41.458 39.7093 41.7561C39.2477 35.4337 39.5748 29.1969 39.4968 22.879ZM22.6237 22.2401L20.4699 20.7114C22.202 20.1242 23.8449 19.3011 25.3524 18.2656C26.7174 17.3619 27.859 16.1596 28.6909 14.7497L29.5637 15.3016L22.6237 22.2401Z" fill="#00214E"/>
<path id="Vector_2" d="M45.3102 42.8583C40.3428 46.6831 34.243 48.7443 27.9738 48.7167C21.7045 48.689 15.6231 46.5739 10.6897 42.7054L18.128 39.2186C18.3557 39.111 18.5777 38.9916 18.793 38.8609L18.9642 38.7539C19.0253 38.7157 19.085 38.676 19.1446 38.6347C20.083 37.9873 20.8521 37.1238 21.3871 36.117C21.9985 34.9629 22.2003 33.688 22.2095 32.3887C22.2095 31.6748 22.1804 30.9609 22.1621 30.2486C22.1621 30.0886 22.159 29.9281 22.1529 29.7671C22.1468 29.283 22.1417 28.7984 22.1376 28.3134H22.1468L22.4403 28.4662L23.2352 28.8774L27.8654 29.6647L32.6225 30.4748L32.7357 34.2964L32.7617 35.1983V35.3619L32.8335 37.7878L34.5868 38.5017L35.9626 39.0581L45.3102 42.8583Z" fill="#F2A196"/>
<path id="Vector_3" d="M32.7357 34.2949C32.4051 34.5221 32.0099 34.6363 31.6091 34.6205C29.3498 34.3774 24.9381 32.6058 22.1652 29.3268C22.1652 29.1668 22.1621 29.0063 22.156 28.8453C22.156 28.668 22.156 28.4907 22.156 28.3134L22.4495 28.4662L23.2444 28.8774L27.8746 29.6647L32.6317 30.4748L32.7357 34.2949Z" fill="#E88870"/>
<path id="Vector_4" d="M17.8575 26.0158C19.2927 26.0158 20.4561 24.8524 20.4561 23.4172C20.4561 21.9819 19.2927 20.8185 17.8575 20.8185C16.4223 20.8185 15.2588 21.9819 15.2588 23.4172C15.2588 24.8524 16.4223 26.0158 17.8575 26.0158Z" fill="#F2A196"/>
<path id="Vector_5" d="M18.7747 25.7101C20.2099 25.7101 21.3734 24.5466 21.3734 23.1114C21.3734 21.6762 20.2099 20.5127 18.7747 20.5127C17.3395 20.5127 16.176 21.6762 16.176 23.1114C16.176 24.5466 17.3395 25.7101 18.7747 25.7101Z" fill="#E88870"/>
<path id="Vector_6" d="M35.978 19.4824C37.7726 25.7009 33.9587 33.2203 31.6153 33.2203C28.4052 33.2203 20.6091 30.6552 18.816 24.4367C17.0229 18.2183 19.4137 12.067 24.1525 10.7004C28.8913 9.33384 34.1819 13.2624 35.978 19.4824Z" fill="#F2A196"/>
<path id="Vector_7" d="M27.1028 27.037C27.8371 27.8574 28.844 28.3837 29.9369 28.5182" stroke="#00214E" stroke-width="2.18376" stroke-miterlimit="10"/>
<path id="Vector_8" d="M30.2548 20.1367C30.2548 20.1673 30.987 21.4452 31.3738 22.8256C31.5525 23.564 31.6352 24.3223 31.6199 25.0819H29.5547" stroke="#00214E" stroke-width="2.18376" stroke-miterlimit="10"/>
<path id="Vector_9" d="M32.1519 18.8359C33.2318 18.2857 34.4808 18.1676 35.6448 18.5057" stroke="#00214E" stroke-width="2.18376" stroke-miterlimit="10"/>
<path id="Vector_10" d="M23.1113 19.4442C23.8469 19.0695 24.6561 18.8616 25.4812 18.8352C26.3064 18.8087 27.1272 18.9645 27.8853 19.2914" stroke="#00214E" stroke-width="2.18376" stroke-miterlimit="10"/>
<path id="Vector_11" d="M25.7927 20.7986C26.7252 20.8062 26.7252 22.2309 25.7927 22.2386H25.7499C24.8174 22.2386 24.8174 20.8062 25.7499 20.7986H25.7927Z" fill="#00214E"/>
<path id="Vector_12" d="M33.4542 20.5862C34.3209 20.5862 34.3209 21.9161 33.4542 21.9222H33.416C32.5508 21.9222 32.5508 20.5923 33.416 20.5862H33.4542Z" fill="#00214E"/>
<path id="Vector_13" d="M30.4092 9.06785C30.3381 9.78772 30.2222 10.5025 30.0622 11.2079C29.7887 12.4528 29.3247 13.648 28.6865 14.7513C27.8545 16.1612 26.7129 17.3635 25.3479 18.2672C23.8404 19.3027 22.1975 20.1257 20.4655 20.713C19.1141 21.1838 17.7139 21.2251 16.2678 21.5125C16.3152 20.3461 16.2678 19.2088 16.4115 17.8544C16.5185 16.8822 16.7325 15.9543 17.1636 15.2068C18.3332 13.229 20.0393 11.623 22.0843 10.5751L22.1026 10.5659C24.3635 9.40262 27.8656 8.25461 30.4092 9.06785Z" fill="#00214E"/>
<path id="Vector_14" d="M18.2398 24.3297C18.7471 24.3297 19.1585 23.9184 19.1585 23.411C19.1585 22.9036 18.7471 22.4923 18.2398 22.4923C17.7324 22.4923 17.321 22.9036 17.321 23.411C17.321 23.9184 17.7324 24.3297 18.2398 24.3297Z" fill="#F2D4CF"/>
<path id="Vector_15" d="M16.4969 25.623C16.4404 25.6139 16.3823 25.6032 16.3242 25.5894C15.7912 25.4669 15.3221 25.1523 15.0064 24.7058C14.6907 24.2592 14.5506 23.7121 14.6128 23.1688C14.6751 22.6254 14.9352 22.1241 15.3437 21.7605C15.7522 21.3969 16.2803 21.1965 16.8271 21.1976C16.8587 21.1975 16.8895 21.2081 16.9144 21.2276C16.9393 21.2472 16.9568 21.2745 16.9643 21.3053C16.9717 21.336 16.9685 21.3684 16.9553 21.3971C16.942 21.4258 16.9195 21.4493 16.8913 21.4636C16.5593 21.6424 16.2782 21.9027 16.0744 22.2201C15.8706 22.5374 15.7509 22.9013 15.7264 23.2776C15.702 23.6539 15.7736 24.0303 15.9346 24.3713C16.0956 24.7123 16.3406 25.0068 16.6467 25.2271C16.6863 25.2551 16.7155 25.2954 16.7297 25.3417C16.7439 25.388 16.7423 25.4378 16.7252 25.4831C16.708 25.5284 16.6763 25.5668 16.635 25.5921C16.5937 25.6174 16.5451 25.6283 16.4969 25.623Z" fill="#F2D4CF"/>
<path id="Vector_16" d="M16.448 21.4391C16.7647 21.3183 17.1154 21.3221 17.4294 21.4498C17.5942 21.523 17.7417 21.6302 17.8623 21.7642C17.9829 21.8983 18.074 22.0563 18.1295 22.2279C18.2162 22.4729 18.2536 22.7326 18.2396 22.9922" stroke="#F2D4CF" stroke-width="4.36753" stroke-miterlimit="10"/>
<path id="Vector_17" d="M45.3102 42.8583C40.3428 46.6831 34.243 48.7443 27.9738 48.7167C21.7045 48.689 15.6231 46.5739 10.6897 42.7054L18.128 39.2186C18.4823 39.0521 18.8223 38.8568 19.1446 38.6347C19.2424 38.5674 19.3402 38.4971 19.4335 38.4237C20.243 37.8043 20.9094 37.0175 21.3871 36.117C21.7482 35.4251 21.9881 34.6765 22.0964 33.9036C22.2043 34.0082 22.3176 34.1072 22.4357 34.2001C23.3729 34.8938 24.3902 35.4722 25.4655 35.9229C25.9875 36.1406 26.5213 36.329 27.0644 36.487C28.7007 36.9641 30.4091 37.1448 32.1089 37.0205C32.3443 37.0021 32.5813 36.9792 32.8167 36.9624L32.8396 37.7389V37.7894L34.6893 38.5414L45.3102 42.8583Z" fill="#F2D4CF"/>
<path id="Vector_18" d="M28.6833 14.7575C27.8514 16.1674 26.7098 17.3696 25.3448 18.2733C23.8373 19.3089 22.1944 20.1319 20.4623 20.7191L16.4084 17.8606L14.4563 16.4848C15.3447 14.2141 16.7383 12.1753 18.5316 10.5232C19.0183 10.081 19.5408 9.68018 20.0939 9.32471L22.0811 10.5812L28.6833 14.7575Z" fill="url(#paint0_linear_7_111)"/>
</g>
<defs>
<linearGradient id="paint0_linear_7_111" x1="16.7951" y1="21.537" x2="25.464" y2="9.99883" gradientUnits="userSpaceOnUse">
<stop offset="0.29" stop-color="#00214E"/>
<stop offset="0.51" stop-color="#6878B1"/>
<stop offset="0.79" stop-color="#00214E"/>
</linearGradient>
</defs>
</svg>
